<?xml version="1.0" encoding="iso-8859-1"?>
<!-- Generator: Adobe Illustrator 23.1.1, SVG Export Plug-In . SVG Version: 6.00 Build 0)  -->
<svg version="1.1" id="Layer_1" xmlns="http://www.w3.org/2000/svg" xmlns:xlink="http://www.w3.org/1999/xlink" x="0px" y="0px"
	 width="461.863px" height="243.702px" viewBox="0 0 461.863 243.702" enable-background="new 0 0 461.863 243.702"
	 xml:space="preserve">
<g>
	<polygon points="114.164,50.92 227.006,0.335 339.291,50.92 226.728,103.171 	"/>
	<path d="M169.859,90.086v28.574c0,0,17.929,20.17,56.588,20.17s57.149-21.851,57.149-21.851V90.086l-56.869,24.372L169.859,90.086z
		"/>
	<rect x="330.739" y="50.798" width="8.552" height="40.518"/>
	<circle cx="335.015" cy="86.381" r="8.37"/>
	<polygon points="321.279,126.905 347.698,126.905 338.073,86.559 331.929,86.559 	"/>
</g>
<g>
	<path d="M0.681,219.222l18.148-1.298c0.393,3.364,1.193,5.928,2.4,7.69c1.965,2.852,4.772,4.277,8.421,4.277
		c2.723,0,4.822-0.728,6.294-2.187c1.475-1.458,2.211-3.148,2.211-5.07c0-1.826-0.702-3.46-2.105-4.902s-4.66-2.804-9.769-4.085
		c-8.365-2.146-14.331-4.998-17.896-8.555c-3.593-3.557-5.39-8.09-5.39-13.601c0-3.621,0.919-7.041,2.759-10.261
		c1.837-3.22,4.602-5.751,8.294-7.594c3.691-1.842,8.752-2.764,15.18-2.764c7.888,0,13.902,1.675,18.044,5.022
		c4.139,3.348,6.603,8.675,7.389,15.98l-17.98,1.202c-0.477-3.172-1.481-5.479-3.011-6.921s-3.642-2.163-6.337-2.163
		c-2.218,0-3.888,0.537-5.011,1.61c-1.123,1.074-1.684,2.379-1.684,3.917c0,1.122,0.463,2.131,1.39,3.028
		c0.898,0.93,3.032,1.795,6.4,2.595c8.337,2.051,14.309,4.126,17.917,6.224c3.606,2.099,6.232,4.703,7.873,7.81
		c1.643,3.108,2.464,6.584,2.464,10.429c0,4.518-1.095,8.683-3.284,12.496c-2.19,3.814-5.249,6.705-9.179,8.674
		c-3.93,1.971-8.885,2.956-14.864,2.956c-10.499,0-17.769-2.307-21.812-6.921S1.214,226.335,0.681,219.222z"/>
	<path d="M66.369,172.074h19.075v24.655h20.843v-24.655h19.159v70.458h-19.159v-28.5H85.443v28.5H66.369V172.074z"/>
	<path d="M179.05,230.901h-21.656l-3.007,11.631H134.91l23.201-70.458h20.806l23.196,70.458H182.14L179.05,230.901z
		 M175.094,215.665l-6.812-25.328l-6.744,25.328H175.094z"/>
	<path d="M214.62,242.532v-70.458h31.791c5.895,0,10.4,0.577,13.516,1.73c3.116,1.153,5.628,3.292,7.537,6.416
		c1.909,3.124,2.863,6.929,2.863,11.415c0,3.91-0.73,7.281-2.191,10.117s-3.469,5.135-6.025,6.897
		c-1.628,1.122-3.861,2.051-6.699,2.788c2.273,0.867,3.927,1.732,4.966,2.597c0.701,0.577,1.717,1.812,3.051,3.704
		c1.332,1.893,2.223,3.352,2.672,4.377l9.237,20.416h-21.553L243.589,221c-1.291-2.788-2.442-4.597-3.453-5.431
		c-1.376-1.089-2.933-1.634-4.674-1.634h-1.684v28.596H214.62z M233.778,200.622h8.042c0.87,0,2.555-0.32,5.053-0.961
		c1.263-0.288,2.294-1.025,3.096-2.211c0.799-1.185,1.199-2.547,1.199-4.085c0-2.275-0.632-4.02-1.895-5.239
		c-1.263-1.218-3.635-1.826-7.116-1.826h-8.379V200.622z"/>
	<path d="M285.845,172.074h31.707c6.906,0,12.077,1.874,15.517,5.623c3.438,3.749,5.158,9.084,5.158,16.004
		c0,7.113-1.873,12.672-5.622,16.677c-3.746,4.006-9.466,6.008-17.158,6.008h-10.443v26.145h-19.159V172.074z M305.003,202.112
		h4.674c3.677,0,6.26-0.728,7.748-2.187c1.488-1.458,2.232-3.323,2.232-5.599c0-2.211-0.646-4.085-1.937-5.623
		c-1.291-1.538-3.719-2.307-7.285-2.307h-5.432V202.112z"/>
	<path d="M349.95,172.074h19.075v53.107h29.77v17.35H349.95V172.074z"/>
	<path d="M394.593,172.074h21.188l12.437,23.769l12.462-23.769h21.074l-24.001,40.948v29.509h-19.117v-29.509L394.593,172.074z"/>
</g>
</svg>
